<svg xmlns="http://www.w3.org/2000/svg" viewBox="0 0 640 320" font-family="Segoe UI, PingFang SC, Microsoft YaHei, sans-serif">
<rect width="640" height="320" rx="16" fill="#0d1220"/>
<text x="32" y="52" fill="#8ea0c0" font-size="15">Claude Code 用量月卡</text>
<text x="608" y="52" fill="#5a6b8a" font-size="15" text-anchor="end">2026-07</text>
<text x="32" y="118" fill="#ffffff" font-size="46" font-weight="700">$245</text>
<text x="32" y="146" fill="#8ea0c0" font-size="14">等价API价值　·　订阅费的1.2倍</text>
<text x="32" y="196" fill="#c8d4e8" font-size="14">输出token　<tspan fill="#ffffff" font-weight="600">5.43M</tspan></text>
<text x="32" y="222" fill="#c8d4e8" font-size="14">最高单日　<tspan fill="#ffffff" font-weight="600">07-23 $27.45</tspan></text>
<text x="32" y="248" fill="#c8d4e8" font-size="14">活跃天数　<tspan fill="#ffffff" font-weight="600">23天</tspan></text>
<text x="370" y="196" fill="#8ea0c0" font-size="12">星期×小时热力</text>
<rect x="440" y="210" width="8" height="10" rx="2" fill="#3987e5" opacity="0.45"/><rect x="450" y="210" width="8" height="10" rx="2" fill="#3987e5" opacity="0.51"/><rect x="460" y="210" width="8" height="10" rx="2" fill="#3987e5" opacity="0.39"/><rect x="470" y="210" width="8" height="10" rx="2" fill="#3987e5" opacity="0.46"/><rect x="480" y="210" width="8" height="10" rx="2" fill="#3987e5" opacity="0.50"/><rect x="490" y="210" width="8" height="10" rx="2" fill="#3987e5" opacity="0.37"/><rect x="500" y="210" width="8" height="10" rx="2" fill="#3987e5" opacity="0.46"/><rect x="510" y="210" width="8" height="10" rx="2" fill="#3987e5" opacity="0.45"/><rect x="520" y="210" width="8" height="10" rx="2" fill="#3987e5" opacity="0.59"/><rect x="530" y="210" width="8" height="10" rx="2" fill="#3987e5" opacity="0.52"/><rect x="540" y="210" width="8" height="10" rx="2" fill="#3987e5" opacity="0.49"/><rect x="550" y="210" width="8" height="10" rx="2" fill="#3987e5" opacity="0.54"/><rect x="560" y="210" width="8" height="10" rx="2" fill="#3987e5" opacity="0.32"/><rect x="570" y="210" width="8" height="10" rx="2" fill="#3987e5" opacity="0.25"/><rect x="440" y="222" width="8" height="10" rx="2" fill="#3987e5" opacity="0.49"/><rect x="450" y="222" width="8" height="10" rx="2" fill="#3987e5" opacity="0.67"/><rect x="460" y="222" width="8" height="10" rx="2" fill="#3987e5" opacity="0.45"/><rect x="470" y="222" width="8" height="10" rx="2" fill="#3987e5" opacity="0.53"/><rect x="480" y="222" width="8" height="10" rx="2" fill="#3987e5" opacity="0.49"/><rect x="490" y="222" width="8" height="10" rx="2" fill="#3987e5" opacity="0.44"/><rect x="500" y="222" width="8" height="10" rx="2" fill="#3987e5" opacity="0.39"/><rect x="510" y="222" width="8" height="10" rx="2" fill="#3987e5" opacity="0.39"/><rect x="520" y="222" width="8" height="10" rx="2" fill="#3987e5" opacity="0.42"/><rect x="530" y="222" width="8" height="10" rx="2" fill="#3987e5" opacity="0.38"/><rect x="540" y="222" width="8" height="10" rx="2" fill="#3987e5" opacity="0.46"/><rect x="550" y="222" width="8" height="10" rx="2" fill="#3987e5" opacity="0.34"/><rect x="560" y="222" width="8" height="10" rx="2" fill="#3987e5" opacity="0.48"/><rect x="570" y="222" width="8" height="10" rx="2" fill="#3987e5" opacity="0.26"/><rect x="440" y="234" width="8" height="10" rx="2" fill="#3987e5" opacity="0.40"/><rect x="450" y="234" width="8" height="10" rx="2" fill="#3987e5" opacity="0.52"/><rect x="460" y="234" width="8" height="10" rx="2" fill="#3987e5" opacity="0.59"/><rect x="470" y="234" width="8" height="10" rx="2" fill="#3987e5" opacity="0.58"/><rect x="480" y="234" width="8" height="10" rx="2" fill="#3987e5" opacity="0.45"/><rect x="490" y="234" width="8" height="10" rx="2" fill="#3987e5" opacity="0.51"/><rect x="500" y="234" width="8" height="10" rx="2" fill="#3987e5" opacity="0.63"/><rect x="510" y="234" width="8" height="10" rx="2" fill="#3987e5" opacity="0.60"/><rect x="520" y="234" width="8" height="10" rx="2" fill="#3987e5" opacity="0.43"/><rect x="530" y="234" width="8" height="10" rx="2" fill="#3987e5" opacity="0.51"/><rect x="540" y="234" width="8" height="10" rx="2" fill="#3987e5" opacity="0.48"/><rect x="550" y="234" width="8" height="10" rx="2" fill="#3987e5" opacity="0.61"/><rect x="560" y="234" width="8" height="10" rx="2" fill="#3987e5" opacity="0.57"/><rect x="570" y="234" width="8" height="10" rx="2" fill="#3987e5" opacity="0.26"/><rect x="440" y="246" width="8" height="10" rx="2" fill="#3987e5" opacity="0.63"/><rect x="450" y="246" width="8" height="10" rx="2" fill="#3987e5" opacity="0.48"/><rect x="460" y="246" width="8" height="10" rx="2" fill="#3987e5" opacity="0.62"/><rect x="470" y="246" width="8" height="10" rx="2" fill="#3987e5" opacity="0.70"/><rect x="480" y="246" width="8" height="10" rx="2" fill="#3987e5" opacity="0.44"/><rect x="490" y="246" width="8" height="10" rx="2" fill="#3987e5" opacity="0.57"/><rect x="500" y="246" width="8" height="10" rx="2" fill="#3987e5" opacity="0.52"/><rect x="510" y="246" width="8" height="10" rx="2" fill="#3987e5" opacity="0.51"/><rect x="520" y="246" width="8" height="10" rx="2" fill="#3987e5" opacity="0.55"/><rect x="530" y="246" width="8" height="10" rx="2" fill="#3987e5" opacity="0.45"/><rect x="540" y="246" width="8" height="10" rx="2" fill="#3987e5" opacity="0.57"/><rect x="550" y="246" width="8" height="10" rx="2" fill="#3987e5" opacity="0.59"/><rect x="560" y="246" width="8" height="10" rx="2" fill="#3987e5" opacity="0.48"/><rect x="580" y="246" width="8" height="10" rx="2" fill="#3987e5" opacity="1.00"/><rect x="590" y="246" width="8" height="10" rx="2" fill="#3987e5" opacity="0.46"/><rect x="440" y="258" width="8" height="10" rx="2" fill="#3987e5" opacity="0.54"/><rect x="450" y="258" width="8" height="10" rx="2" fill="#3987e5" opacity="0.48"/><rect x="460" y="258" width="8" height="10" rx="2" fill="#3987e5" opacity="0.47"/><rect x="470" y="258" width="8" height="10" rx="2" fill="#3987e5" opacity="0.52"/><rect x="480" y="258" width="8" height="10" rx="2" fill="#3987e5" opacity="0.50"/><rect x="490" y="258" width="8" height="10" rx="2" fill="#3987e5" opacity="0.52"/><rect x="500" y="258" width="8" height="10" rx="2" fill="#3987e5" opacity="0.41"/><rect x="510" y="258" width="8" height="10" rx="2" fill="#3987e5" opacity="0.46"/><rect x="520" y="258" width="8" height="10" rx="2" fill="#3987e5" opacity="0.49"/><rect x="530" y="258" width="8" height="10" rx="2" fill="#3987e5" opacity="0.49"/><rect x="540" y="258" width="8" height="10" rx="2" fill="#3987e5" opacity="0.44"/><rect x="550" y="258" width="8" height="10" rx="2" fill="#3987e5" opacity="0.50"/><rect x="560" y="258" width="8" height="10" rx="2" fill="#3987e5" opacity="0.53"/><rect x="570" y="258" width="8" height="10" rx="2" fill="#3987e5" opacity="0.26"/><rect x="440" y="270" width="8" height="10" rx="2" fill="#3987e5" opacity="0.33"/><rect x="450" y="270" width="8" height="10" rx="2" fill="#3987e5" opacity="0.33"/><rect x="460" y="270" width="8" height="10" rx="2" fill="#3987e5" opacity="0.33"/><rect x="470" y="270" width="8" height="10" rx="2" fill="#3987e5" opacity="0.26"/><rect x="480" y="270" width="8" height="10" rx="2" fill="#3987e5" opacity="0.33"/><rect x="490" y="270" width="8" height="10" rx="2" fill="#3987e5" opacity="0.31"/><rect x="500" y="270" width="8" height="10" rx="2" fill="#3987e5" opacity="0.35"/><rect x="510" y="270" width="8" height="10" rx="2" fill="#3987e5" opacity="0.29"/><rect x="520" y="270" width="8" height="10" rx="2" fill="#3987e5" opacity="0.32"/><rect x="530" y="270" width="8" height="10" rx="2" fill="#3987e5" opacity="0.32"/><rect x="540" y="270" width="8" height="10" rx="2" fill="#3987e5" opacity="0.38"/><rect x="550" y="270" width="8" height="10" rx="2" fill="#3987e5" opacity="0.32"/><rect x="560" y="270" width="8" height="10" rx="2" fill="#3987e5" opacity="0.47"/><rect x="440" y="282" width="8" height="10" rx="2" fill="#3987e5" opacity="0.33"/><rect x="450" y="282" width="8" height="10" rx="2" fill="#3987e5" opacity="0.40"/><rect x="460" y="282" width="8" height="10" rx="2" fill="#3987e5" opacity="0.28"/><rect x="470" y="282" width="8" height="10" rx="2" fill="#3987e5" opacity="0.36"/><rect x="480" y="282" width="8" height="10" rx="2" fill="#3987e5" opacity="0.34"/><rect x="490" y="282" width="8" height="10" rx="2" fill="#3987e5" opacity="0.30"/><rect x="500" y="282" width="8" height="10" rx="2" fill="#3987e5" opacity="0.32"/><rect x="510" y="282" width="8" height="10" rx="2" fill="#3987e5" opacity="0.37"/><rect x="520" y="282" width="8" height="10" rx="2" fill="#3987e5" opacity="0.30"/><rect x="530" y="282" width="8" height="10" rx="2" fill="#3987e5" opacity="0.28"/><rect x="540" y="282" width="8" height="10" rx="2" fill="#3987e5" opacity="0.29"/><rect x="550" y="282" width="8" height="10" rx="2" fill="#3987e5" opacity="0.38"/><rect x="560" y="282" width="8" height="10" rx="2" fill="#3987e5" opacity="0.31"/><rect x="570" y="282" width="8" height="10" rx="2" fill="#3987e5" opacity="0.26"/>
<text x="32" y="296" fill="#5a6b8a" font-size="12">github.com/1931840268/claude-usage-monitor</text>
</svg>